<svg width="1140" height="326" viewBox="0 0 1140 326" fill="none" xmlns="http://www.w3.org/2000/svg">
<path d="M3.5 96.875C2.58333 96.7917 2.125 96.125 2.125 94.875V84.4375C2.125 83.7708 2.25 83.3125 2.5 83.0625C2.79167 82.8125 3.29167 82.6667 4 82.625L9.75 82.875L34.5 2.625C34.75 1.83333 35.25 1.39583 36 1.3125L50.1875 0.8125C50.9375 0.854167 51.4583 1.33333 51.75 2.25L78.75 82.4375L84.4375 82.25C85.6042 82.3333 86.1875 83 86.1875 84.25V94.125C86.1875 94.8333 86.0417 95.2917 85.75 95.5C85.4583 95.7083 84.9583 95.8125 84.25 95.8125H55.3125C54.5625 95.8125 54.125 95.6458 54 95.3125C53.875 94.9792 53.8125 94.5208 53.8125 93.9375L55.0625 84.8125C55.1458 84.1042 55.3125 83.6458 55.5625 83.4375C55.8125 83.1875 56.2708 83.0625 56.9375 83.0625L64.0625 82.875L58.6875 66.25L27.75 65.625L22.6875 83.75L30.25 83C30.75 83 31.0833 83.1042 31.25 83.3125C31.4583 83.5208 31.6042 83.8958 31.6875 84.4375L32.625 93.9375C32.5417 94.6458 32.3542 95.125 32.0625 95.375C31.8125 95.625 31.375 95.7708 30.75 95.8125L3.5 96.875ZM30.6875 55H55L41.875 14.8125L30.6875 55Z" fill="white"/>
<path d="M103.498 25V97H94.7795V25H103.498ZM128.934 25V97H120.215V25H128.934ZM180.274 46.2812V97H171.555V46.2812H180.274ZM170.899 32.8281C170.899 31.4219 171.321 30.2344 172.165 29.2656C173.04 28.2969 174.321 27.8125 176.009 27.8125C177.665 27.8125 178.93 28.2969 179.805 29.2656C180.712 30.2344 181.165 31.4219 181.165 32.8281C181.165 34.1719 180.712 35.3281 179.805 36.2969C178.93 37.2344 177.665 37.7031 176.009 37.7031C174.321 37.7031 173.04 37.2344 172.165 36.2969C171.321 35.3281 170.899 34.1719 170.899 32.8281ZM204.96 57.1094V97H196.288V46.2812H204.491L204.96 57.1094ZM202.898 69.7188L199.288 69.5781C199.319 66.1094 199.835 62.9062 200.835 59.9688C201.835 57 203.241 54.4219 205.054 52.2344C206.866 50.0469 209.023 48.3594 211.523 47.1719C214.054 45.9531 216.851 45.3438 219.913 45.3438C222.413 45.3438 224.663 45.6875 226.663 46.375C228.663 47.0312 230.366 48.0938 231.773 49.5625C233.21 51.0312 234.304 52.9375 235.054 55.2812C235.804 57.5938 236.179 60.4219 236.179 63.7656V97H227.46V63.6719C227.46 61.0156 227.069 58.8906 226.288 57.2969C225.507 55.6719 224.366 54.5 222.866 53.7812C221.366 53.0312 219.523 52.6562 217.335 52.6562C215.179 52.6562 213.21 53.1094 211.429 54.0156C209.679 54.9219 208.163 56.1719 206.882 57.7656C205.632 59.3594 204.648 61.1875 203.929 63.25C203.241 65.2812 202.898 67.4375 202.898 69.7188ZM331.207 60.7188V65.0312C331.207 70.1562 330.566 74.75 329.285 78.8125C328.003 82.875 326.16 86.3281 323.753 89.1719C321.347 92.0156 318.457 94.1875 315.082 95.6875C311.738 97.1875 307.988 97.9375 303.832 97.9375C299.8 97.9375 296.097 97.1875 292.722 95.6875C289.378 94.1875 286.472 92.0156 284.003 89.1719C281.566 86.3281 279.675 82.875 278.332 78.8125C276.988 74.75 276.316 70.1562 276.316 65.0312V60.7188C276.316 55.5938 276.972 51.0156 278.285 46.9844C279.628 42.9219 281.519 39.4688 283.957 36.625C286.394 33.75 289.285 31.5625 292.628 30.0625C296.003 28.5625 299.707 27.8125 303.738 27.8125C307.894 27.8125 311.644 28.5625 314.988 30.0625C318.363 31.5625 321.253 33.75 323.66 36.625C326.097 39.4688 327.957 42.9219 329.238 46.9844C330.55 51.0156 331.207 55.5938 331.207 60.7188ZM322.253 65.0312V60.625C322.253 56.5625 321.832 52.9688 320.988 49.8438C320.175 46.7188 318.972 44.0938 317.378 41.9688C315.785 39.8438 313.832 38.2344 311.519 37.1406C309.238 36.0469 306.644 35.5 303.738 35.5C300.925 35.5 298.378 36.0469 296.097 37.1406C293.847 38.2344 291.91 39.8438 290.285 41.9688C288.691 44.0938 287.457 46.7188 286.582 49.8438C285.707 52.9688 285.269 56.5625 285.269 60.625V65.0312C285.269 69.125 285.707 72.75 286.582 75.9062C287.457 79.0312 288.707 81.6719 290.332 83.8281C291.988 85.9531 293.941 87.5625 296.191 88.6562C298.472 89.75 301.019 90.2969 303.832 90.2969C306.769 90.2969 309.378 89.75 311.66 88.6562C313.941 87.5625 315.863 85.9531 317.425 83.8281C319.019 81.6719 320.222 79.0312 321.035 75.9062C321.847 72.75 322.253 69.125 322.253 65.0312ZM354.205 57.1094V97H345.533V46.2812H353.736L354.205 57.1094ZM352.142 69.7188L348.533 69.5781C348.564 66.1094 349.08 62.9062 350.08 59.9688C351.08 57 352.486 54.4219 354.298 52.2344C356.111 50.0469 358.267 48.3594 360.767 47.1719C363.298 45.9531 366.095 45.3438 369.158 45.3438C371.658 45.3438 373.908 45.6875 375.908 46.375C377.908 47.0312 379.611 48.0938 381.017 49.5625C382.455 51.0312 383.548 52.9375 384.298 55.2812C385.048 57.5938 385.423 60.4219 385.423 63.7656V97H376.705V63.6719C376.705 61.0156 376.314 58.8906 375.533 57.2969C374.752 55.6719 373.611 54.5 372.111 53.7812C370.611 53.0312 368.767 52.6562 366.58 52.6562C364.423 52.6562 362.455 53.1094 360.673 54.0156C358.923 54.9219 357.408 56.1719 356.127 57.7656C354.877 59.3594 353.892 61.1875 353.173 63.25C352.486 65.2812 352.142 67.4375 352.142 69.7188ZM421.734 97.9375C418.203 97.9375 415 97.3438 412.125 96.1562C409.281 94.9375 406.828 93.2344 404.766 91.0469C402.734 88.8594 401.172 86.2656 400.078 83.2656C398.984 80.2656 398.437 76.9844 398.437 73.4219V71.4531C398.437 67.3281 399.047 63.6562 400.266 60.4375C401.484 57.1875 403.141 54.4375 405.234 52.1875C407.328 49.9375 409.703 48.2344 412.359 47.0781C415.016 45.9219 417.766 45.3438 420.609 45.3438C424.234 45.3438 427.359 45.9688 429.984 47.2188C432.641 48.4688 434.812 50.2188 436.5 52.4688C438.187 54.6875 439.437 57.3125 440.25 60.3438C441.062 63.3438 441.469 66.625 441.469 70.1875V74.0781H403.594V67H432.797V66.3438C432.672 64.0938 432.203 61.9062 431.391 59.7812C430.609 57.6562 429.359 55.9062 427.641 54.5312C425.922 53.1562 423.578 52.4688 420.609 52.4688C418.641 52.4688 416.828 52.8906 415.172 53.7344C413.516 54.5469 412.094 55.7656 410.906 57.3906C409.719 59.0156 408.797 61 408.141 63.3438C407.484 65.6875 407.156 68.3906 407.156 71.4531V73.4219C407.156 75.8281 407.484 78.0938 408.141 80.2188C408.828 82.3125 409.812 84.1562 411.094 85.75C412.406 87.3438 413.984 88.5938 415.828 89.5C417.703 90.4062 419.828 90.8594 422.203 90.8594C425.266 90.8594 427.859 90.2344 429.984 88.9844C432.109 87.7344 433.969 86.0625 435.562 83.9688L440.812 88.1406C439.719 89.7969 438.328 91.375 436.641 92.875C434.953 94.375 432.875 95.5938 430.406 96.5312C427.969 97.4688 425.078 97.9375 421.734 97.9375Z" fill="black"/>
<path d="M225.812 128.314C225.28 128.251 224.952 127.876 224.827 127.189L225.249 105.204C225.249 104.642 225.608 104.36 226.327 104.36L234.015 105.298C234.64 105.298 234.952 105.657 234.952 106.376V107.595L270.905 107.22L279.53 106.282C280.218 106.282 280.562 106.626 280.562 107.314L279.155 128.079C279.093 128.579 278.796 128.829 278.265 128.829L270.249 128.454C269.874 128.392 269.624 128.298 269.499 128.173C269.405 128.017 269.343 127.735 269.312 127.329L269.452 115.751L257.358 115.939L258.155 166.939L267.202 166.423C267.702 166.548 267.952 166.845 267.952 167.314L268.046 175.61C267.983 176.36 267.702 176.735 267.202 176.735L239.358 177.345C238.671 177.345 238.296 177.032 238.233 176.407L238.562 167.126C238.562 166.532 238.812 166.235 239.312 166.235L247.655 166.751L246.812 116.22L234.999 116.876L235.046 126.814C235.015 127.407 234.64 127.72 233.921 127.751L225.812 128.314Z" fill="white"/>
<path d="M323.154 168.814V142.704C323.154 140.704 322.747 138.97 321.935 137.501C321.154 136.001 319.966 134.845 318.372 134.032C316.779 133.22 314.81 132.814 312.466 132.814C310.279 132.814 308.357 133.189 306.7 133.939C305.075 134.689 303.794 135.673 302.857 136.892C301.95 138.11 301.497 139.423 301.497 140.829H292.825C292.825 139.017 293.294 137.22 294.232 135.439C295.169 133.657 296.513 132.048 298.263 130.61C300.044 129.142 302.169 127.985 304.638 127.142C307.138 126.267 309.919 125.829 312.982 125.829C316.669 125.829 319.919 126.454 322.732 127.704C325.575 128.954 327.794 130.845 329.388 133.376C331.013 135.876 331.825 139.017 331.825 142.798V166.423C331.825 168.11 331.966 169.907 332.247 171.814C332.56 173.72 333.013 175.36 333.607 176.735V177.485H324.56C324.122 176.485 323.779 175.157 323.529 173.501C323.279 171.814 323.154 170.251 323.154 168.814ZM324.654 146.735L324.747 152.829H315.982C313.513 152.829 311.31 153.032 309.372 153.439C307.435 153.814 305.81 154.392 304.497 155.173C303.185 155.954 302.185 156.939 301.497 158.126C300.81 159.282 300.466 160.642 300.466 162.204C300.466 163.798 300.825 165.251 301.544 166.564C302.263 167.876 303.341 168.923 304.779 169.704C306.247 170.454 308.044 170.829 310.169 170.829C312.825 170.829 315.169 170.267 317.2 169.142C319.232 168.017 320.841 166.642 322.029 165.017C323.247 163.392 323.904 161.814 323.997 160.282L327.7 164.454C327.482 165.767 326.888 167.22 325.919 168.814C324.95 170.407 323.654 171.939 322.029 173.407C320.435 174.845 318.529 176.048 316.31 177.017C314.122 177.954 311.654 178.423 308.904 178.423C305.466 178.423 302.45 177.751 299.857 176.407C297.294 175.064 295.294 173.267 293.857 171.017C292.45 168.735 291.747 166.189 291.747 163.376C291.747 160.657 292.279 158.267 293.341 156.204C294.404 154.11 295.935 152.376 297.935 151.001C299.935 149.595 302.341 148.532 305.154 147.814C307.966 147.095 311.107 146.735 314.575 146.735H324.654ZM377.089 164.032C377.089 162.782 376.808 161.626 376.246 160.564C375.714 159.47 374.605 158.485 372.917 157.61C371.261 156.704 368.761 155.923 365.417 155.267C362.605 154.673 360.058 153.97 357.777 153.157C355.527 152.345 353.605 151.36 352.011 150.204C350.449 149.048 349.246 147.689 348.402 146.126C347.558 144.564 347.136 142.735 347.136 140.642C347.136 138.642 347.574 136.751 348.449 134.97C349.355 133.189 350.621 131.61 352.246 130.235C353.902 128.86 355.886 127.782 358.199 127.001C360.511 126.22 363.089 125.829 365.933 125.829C369.996 125.829 373.464 126.548 376.339 127.985C379.214 129.423 381.417 131.345 382.949 133.751C384.48 136.126 385.246 138.767 385.246 141.673H376.574C376.574 140.267 376.152 138.907 375.308 137.595C374.496 136.251 373.292 135.142 371.699 134.267C370.136 133.392 368.214 132.954 365.933 132.954C363.527 132.954 361.574 133.329 360.074 134.079C358.605 134.798 357.527 135.72 356.839 136.845C356.183 137.97 355.855 139.157 355.855 140.407C355.855 141.345 356.011 142.189 356.324 142.939C356.667 143.657 357.261 144.329 358.105 144.954C358.949 145.548 360.136 146.11 361.667 146.642C363.199 147.173 365.152 147.704 367.527 148.235C371.683 149.173 375.105 150.298 377.792 151.61C380.48 152.923 382.48 154.532 383.792 156.439C385.105 158.345 385.761 160.657 385.761 163.376C385.761 165.595 385.292 167.626 384.355 169.47C383.449 171.314 382.121 172.907 380.371 174.251C378.652 175.564 376.589 176.595 374.183 177.345C371.808 178.064 369.136 178.423 366.167 178.423C361.699 178.423 357.917 177.626 354.824 176.032C351.73 174.439 349.386 172.376 347.792 169.845C346.199 167.314 345.402 164.642 345.402 161.829H354.121C354.246 164.204 354.933 166.095 356.183 167.501C357.433 168.876 358.964 169.86 360.777 170.454C362.589 171.017 364.386 171.298 366.167 171.298C368.542 171.298 370.527 170.985 372.121 170.36C373.746 169.735 374.98 168.876 375.824 167.782C376.667 166.689 377.089 165.439 377.089 164.032ZM407.963 105.485V177.485H399.244V105.485H407.963ZM438.947 126.767L416.822 150.439L404.447 163.282L403.744 154.048L412.603 143.454L428.353 126.767H438.947ZM431.025 177.485L412.931 153.298L417.431 145.564L441.244 177.485H431.025ZM480.068 109.235H488.834L511.193 164.876L533.506 109.235H542.318L514.568 177.485H507.725L480.068 109.235ZM477.209 109.235H484.943L486.209 150.86V177.485H477.209V109.235ZM537.397 109.235H545.131V177.485H536.131V150.86L537.397 109.235ZM591.707 168.814V142.704C591.707 140.704 591.301 138.97 590.489 137.501C589.707 136.001 588.52 134.845 586.926 134.032C585.332 133.22 583.364 132.814 581.02 132.814C578.832 132.814 576.91 133.189 575.254 133.939C573.629 134.689 572.348 135.673 571.41 136.892C570.504 138.11 570.051 139.423 570.051 140.829H561.379C561.379 139.017 561.848 137.22 562.785 135.439C563.723 133.657 565.067 132.048 566.817 130.61C568.598 129.142 570.723 127.985 573.192 127.142C575.692 126.267 578.473 125.829 581.535 125.829C585.223 125.829 588.473 126.454 591.285 127.704C594.129 128.954 596.348 130.845 597.942 133.376C599.567 135.876 600.379 139.017 600.379 142.798V166.423C600.379 168.11 600.52 169.907 600.801 171.814C601.114 173.72 601.567 175.36 602.16 176.735V177.485H593.114C592.676 176.485 592.332 175.157 592.082 173.501C591.832 171.814 591.707 170.251 591.707 168.814ZM593.207 146.735L593.301 152.829H584.535C582.067 152.829 579.864 153.032 577.926 153.439C575.989 153.814 574.364 154.392 573.051 155.173C571.739 155.954 570.739 156.939 570.051 158.126C569.364 159.282 569.02 160.642 569.02 162.204C569.02 163.798 569.379 165.251 570.098 166.564C570.817 167.876 571.895 168.923 573.332 169.704C574.801 170.454 576.598 170.829 578.723 170.829C581.379 170.829 583.723 170.267 585.754 169.142C587.785 168.017 589.395 166.642 590.582 165.017C591.801 163.392 592.457 161.814 592.551 160.282L596.254 164.454C596.035 165.767 595.442 167.22 594.473 168.814C593.504 170.407 592.207 171.939 590.582 173.407C588.989 174.845 587.082 176.048 584.864 177.017C582.676 177.954 580.207 178.423 577.457 178.423C574.02 178.423 571.004 177.751 568.41 176.407C565.848 175.064 563.848 173.267 562.41 171.017C561.004 168.735 560.301 166.189 560.301 163.376C560.301 160.657 560.832 158.267 561.895 156.204C562.957 154.11 564.489 152.376 566.489 151.001C568.489 149.595 570.895 148.532 573.707 147.814C576.52 147.095 579.66 146.735 583.129 146.735H593.207ZM624.784 137.595V177.485H616.112V126.767H624.315L624.784 137.595ZM622.721 150.204L619.112 150.064C619.143 146.595 619.659 143.392 620.659 140.454C621.659 137.485 623.065 134.907 624.877 132.72C626.69 130.532 628.846 128.845 631.346 127.657C633.877 126.439 636.674 125.829 639.737 125.829C642.237 125.829 644.487 126.173 646.487 126.86C648.487 127.517 650.19 128.579 651.596 130.048C653.034 131.517 654.127 133.423 654.877 135.767C655.627 138.079 656.002 140.907 656.002 144.251V177.485H647.284V144.157C647.284 141.501 646.893 139.376 646.112 137.782C645.331 136.157 644.19 134.985 642.69 134.267C641.19 133.517 639.346 133.142 637.159 133.142C635.002 133.142 633.034 133.595 631.252 134.501C629.502 135.407 627.987 136.657 626.706 138.251C625.456 139.845 624.471 141.673 623.752 143.735C623.065 145.767 622.721 147.923 622.721 150.204ZM704.126 126.767H712.001V176.407C712.001 180.876 711.094 184.689 709.282 187.845C707.469 191.001 704.938 193.392 701.688 195.017C698.469 196.673 694.751 197.501 690.532 197.501C688.782 197.501 686.719 197.22 684.344 196.657C682.001 196.126 679.688 195.204 677.407 193.892C675.157 192.61 673.266 190.876 671.735 188.689L676.282 183.532C678.407 186.095 680.626 187.876 682.938 188.876C685.282 189.876 687.594 190.376 689.876 190.376C692.626 190.376 695.001 189.86 697.001 188.829C699.001 187.798 700.548 186.267 701.641 184.235C702.766 182.235 703.329 179.767 703.329 176.829V137.923L704.126 126.767ZM669.204 152.689V151.704C669.204 147.829 669.657 144.314 670.563 141.157C671.501 137.97 672.829 135.235 674.548 132.954C676.298 130.673 678.407 128.923 680.876 127.704C683.344 126.454 686.126 125.829 689.219 125.829C692.407 125.829 695.188 126.392 697.563 127.517C699.969 128.61 702.001 130.22 703.657 132.345C705.344 134.439 706.673 136.97 707.641 139.939C708.61 142.907 709.282 146.267 709.657 150.017V154.329C709.313 158.048 708.641 161.392 707.641 164.36C706.673 167.329 705.344 169.86 703.657 171.954C702.001 174.048 699.969 175.657 697.563 176.782C695.157 177.876 692.344 178.423 689.126 178.423C686.094 178.423 683.344 177.782 680.876 176.501C678.438 175.22 676.344 173.423 674.594 171.11C672.844 168.798 671.501 166.079 670.563 162.954C669.657 159.798 669.204 156.376 669.204 152.689ZM677.876 151.704V152.689C677.876 155.22 678.126 157.595 678.626 159.814C679.157 162.032 679.954 163.985 681.016 165.673C682.11 167.36 683.501 168.689 685.188 169.657C686.876 170.595 688.891 171.064 691.235 171.064C694.11 171.064 696.485 170.454 698.36 169.235C700.235 168.017 701.719 166.407 702.813 164.407C703.938 162.407 704.813 160.235 705.438 157.892V146.595C705.094 144.876 704.563 143.22 703.844 141.626C703.157 140.001 702.251 138.564 701.126 137.314C700.032 136.032 698.673 135.017 697.048 134.267C695.423 133.517 693.516 133.142 691.329 133.142C688.954 133.142 686.907 133.642 685.188 134.642C683.501 135.61 682.11 136.954 681.016 138.673C679.954 140.36 679.157 142.329 678.626 144.579C678.126 146.798 677.876 149.173 677.876 151.704ZM748.311 178.423C744.78 178.423 741.577 177.829 738.702 176.642C735.858 175.423 733.405 173.72 731.343 171.532C729.311 169.345 727.749 166.751 726.655 163.751C725.561 160.751 725.015 157.47 725.015 153.907V151.939C725.015 147.814 725.624 144.142 726.843 140.923C728.061 137.673 729.718 134.923 731.811 132.673C733.905 130.423 736.28 128.72 738.936 127.564C741.593 126.407 744.343 125.829 747.186 125.829C750.811 125.829 753.936 126.454 756.561 127.704C759.218 128.954 761.39 130.704 763.077 132.954C764.765 135.173 766.015 137.798 766.827 140.829C767.64 143.829 768.046 147.11 768.046 150.673V154.564H730.171V147.485H759.374V146.829C759.249 144.579 758.78 142.392 757.968 140.267C757.186 138.142 755.936 136.392 754.218 135.017C752.499 133.642 750.155 132.954 747.186 132.954C745.218 132.954 743.405 133.376 741.749 134.22C740.093 135.032 738.671 136.251 737.483 137.876C736.296 139.501 735.374 141.485 734.718 143.829C734.061 146.173 733.733 148.876 733.733 151.939V153.907C733.733 156.314 734.061 158.579 734.718 160.704C735.405 162.798 736.39 164.642 737.671 166.235C738.983 167.829 740.561 169.079 742.405 169.985C744.28 170.892 746.405 171.345 748.78 171.345C751.843 171.345 754.436 170.72 756.561 169.47C758.686 168.22 760.546 166.548 762.14 164.454L767.39 168.626C766.296 170.282 764.905 171.86 763.218 173.36C761.53 174.86 759.452 176.079 756.983 177.017C754.546 177.954 751.655 178.423 748.311 178.423ZM788.888 136.845V177.485H780.169V126.767H788.419L788.888 136.845ZM787.107 150.204L783.075 150.064C783.107 146.595 783.56 143.392 784.435 140.454C785.31 137.485 786.607 134.907 788.325 132.72C790.044 130.532 792.185 128.845 794.747 127.657C797.31 126.439 800.278 125.829 803.653 125.829C806.028 125.829 808.216 126.173 810.216 126.86C812.216 127.517 813.95 128.564 815.419 130.001C816.888 131.439 818.028 133.282 818.841 135.532C819.653 137.782 820.06 140.501 820.06 143.689V177.485H811.388V144.11C811.388 141.454 810.935 139.329 810.028 137.735C809.153 136.142 807.903 134.985 806.278 134.267C804.653 133.517 802.747 133.142 800.56 133.142C797.997 133.142 795.857 133.595 794.138 134.501C792.419 135.407 791.044 136.657 790.013 138.251C788.982 139.845 788.232 141.673 787.763 143.735C787.325 145.767 787.107 147.923 787.107 150.204ZM819.966 145.423L814.153 147.204C814.185 144.423 814.638 141.751 815.513 139.189C816.419 136.626 817.716 134.345 819.403 132.345C821.122 130.345 823.232 128.767 825.732 127.61C828.232 126.423 831.091 125.829 834.31 125.829C837.028 125.829 839.435 126.189 841.528 126.907C843.653 127.626 845.435 128.735 846.872 130.235C848.341 131.704 849.45 133.595 850.2 135.907C850.95 138.22 851.325 140.97 851.325 144.157V177.485H842.607V144.064C842.607 141.22 842.153 139.017 841.247 137.454C840.372 135.86 839.122 134.751 837.497 134.126C835.903 133.47 833.997 133.142 831.778 133.142C829.872 133.142 828.185 133.47 826.716 134.126C825.247 134.782 824.013 135.689 823.013 136.845C822.013 137.97 821.247 139.267 820.716 140.735C820.216 142.204 819.966 143.767 819.966 145.423ZM887.589 178.423C884.058 178.423 880.855 177.829 877.98 176.642C875.136 175.423 872.683 173.72 870.62 171.532C868.589 169.345 867.027 166.751 865.933 163.751C864.839 160.751 864.292 157.47 864.292 153.907V151.939C864.292 147.814 864.902 144.142 866.12 140.923C867.339 137.673 868.995 134.923 871.089 132.673C873.183 130.423 875.558 128.72 878.214 127.564C880.87 126.407 883.62 125.829 886.464 125.829C890.089 125.829 893.214 126.454 895.839 127.704C898.495 128.954 900.667 130.704 902.355 132.954C904.042 135.173 905.292 137.798 906.105 140.829C906.917 143.829 907.324 147.11 907.324 150.673V154.564H869.449V147.485H898.652V146.829C898.527 144.579 898.058 142.392 897.245 140.267C896.464 138.142 895.214 136.392 893.495 135.017C891.777 133.642 889.433 132.954 886.464 132.954C884.495 132.954 882.683 133.376 881.027 134.22C879.37 135.032 877.949 136.251 876.761 137.876C875.574 139.501 874.652 141.485 873.995 143.829C873.339 146.173 873.011 148.876 873.011 151.939V153.907C873.011 156.314 873.339 158.579 873.995 160.704C874.683 162.798 875.667 164.642 876.949 166.235C878.261 167.829 879.839 169.079 881.683 169.985C883.558 170.892 885.683 171.345 888.058 171.345C891.12 171.345 893.714 170.72 895.839 169.47C897.964 168.22 899.824 166.548 901.417 164.454L906.667 168.626C905.574 170.282 904.183 171.86 902.495 173.36C900.808 174.86 898.73 176.079 896.261 177.017C893.824 177.954 890.933 178.423 887.589 178.423ZM928.212 137.595V177.485H919.541V126.767H927.744L928.212 137.595ZM926.15 150.204L922.541 150.064C922.572 146.595 923.087 143.392 924.087 140.454C925.087 137.485 926.494 134.907 928.306 132.72C930.119 130.532 932.275 128.845 934.775 127.657C937.306 126.439 940.103 125.829 943.166 125.829C945.666 125.829 947.916 126.173 949.916 126.86C951.916 127.517 953.619 128.579 955.025 130.048C956.462 131.517 957.556 133.423 958.306 135.767C959.056 138.079 959.431 140.907 959.431 144.251V177.485H950.712V144.157C950.712 141.501 950.322 139.376 949.541 137.782C948.759 136.157 947.619 134.985 946.119 134.267C944.619 133.517 942.775 133.142 940.587 133.142C938.431 133.142 936.462 133.595 934.681 134.501C932.931 135.407 931.416 136.657 930.134 138.251C928.884 139.845 927.9 141.673 927.181 143.735C926.494 145.767 926.15 147.923 926.15 150.204ZM995.929 126.767V133.423H968.508V126.767H995.929ZM977.789 114.439H986.461V164.923C986.461 166.642 986.726 167.939 987.258 168.814C987.789 169.689 988.476 170.267 989.32 170.548C990.164 170.829 991.07 170.97 992.039 170.97C992.758 170.97 993.508 170.907 994.289 170.782C995.101 170.626 995.711 170.501 996.117 170.407L996.164 177.485C995.476 177.704 994.57 177.907 993.445 178.095C992.351 178.314 991.023 178.423 989.461 178.423C987.336 178.423 985.383 178.001 983.601 177.157C981.82 176.314 980.398 174.907 979.336 172.939C978.304 170.939 977.789 168.251 977.789 164.876V114.439Z" fill="black"/>
<path d="M845.921 255.758C845.234 255.696 844.89 255.196 844.89 254.258V246.43C844.89 245.93 844.984 245.586 845.171 245.399C845.39 245.211 845.765 245.102 846.296 245.071L850.609 245.258L869.171 185.071C869.359 184.477 869.734 184.149 870.296 184.086L880.937 183.711C881.5 183.742 881.89 184.102 882.109 184.789L902.359 244.93L906.625 244.789C907.5 244.852 907.937 245.352 907.937 246.289V253.696C907.937 254.227 907.828 254.571 907.609 254.727C907.39 254.883 907.015 254.961 906.484 254.961H884.781C884.218 254.961 883.89 254.836 883.796 254.586C883.703 254.336 883.656 253.992 883.656 253.555L884.593 246.711C884.656 246.18 884.781 245.836 884.968 245.68C885.156 245.492 885.5 245.399 886 245.399L891.343 245.258L887.312 232.789L864.109 232.321L860.312 245.914L865.984 245.352C866.359 245.352 866.609 245.43 866.734 245.586C866.89 245.742 867 246.024 867.062 246.43L867.765 253.555C867.703 254.086 867.562 254.446 867.343 254.633C867.156 254.821 866.828 254.93 866.359 254.961L845.921 255.758ZM866.312 224.352H884.546L874.703 194.211L866.312 224.352Z" fill="white"/>
<path d="M924.701 214.883V275.352H915.982V205.133H923.951L924.701 214.883ZM958.873 230.071V231.055C958.873 234.742 958.435 238.164 957.56 241.321C956.685 244.446 955.404 247.164 953.717 249.477C952.06 251.789 950.013 253.586 947.576 254.867C945.138 256.149 942.342 256.789 939.185 256.789C935.967 256.789 933.123 256.258 930.654 255.196C928.185 254.133 926.092 252.586 924.373 250.555C922.654 248.524 921.279 246.086 920.248 243.242C919.248 240.399 918.56 237.196 918.185 233.633V228.383C918.56 224.633 919.263 221.274 920.295 218.305C921.326 215.336 922.685 212.805 924.373 210.711C926.092 208.586 928.17 206.977 930.607 205.883C933.045 204.758 935.857 204.196 939.045 204.196C942.232 204.196 945.06 204.821 947.529 206.071C949.998 207.289 952.076 209.039 953.763 211.321C955.451 213.602 956.717 216.336 957.56 219.524C958.435 222.68 958.873 226.196 958.873 230.071ZM950.154 231.055V230.071C950.154 227.539 949.888 225.164 949.357 222.946C948.826 220.696 947.998 218.727 946.873 217.039C945.779 215.321 944.373 213.977 942.654 213.008C940.935 212.008 938.888 211.508 936.513 211.508C934.326 211.508 932.42 211.883 930.795 212.633C929.201 213.383 927.842 214.399 926.717 215.68C925.592 216.93 924.67 218.367 923.951 219.992C923.263 221.586 922.748 223.242 922.404 224.961V237.102C923.029 239.289 923.904 241.352 925.029 243.289C926.154 245.196 927.654 246.742 929.529 247.93C931.404 249.086 933.763 249.664 936.607 249.664C938.951 249.664 940.967 249.18 942.654 248.211C944.373 247.211 945.779 245.852 946.873 244.133C947.998 242.414 948.826 240.446 949.357 238.227C949.888 235.977 950.154 233.586 950.154 231.055ZM980.699 214.883V275.352H971.98V205.133H979.949L980.699 214.883ZM1014.87 230.071V231.055C1014.87 234.742 1014.43 238.164 1013.56 241.321C1012.68 244.446 1011.4 247.164 1009.71 249.477C1008.06 251.789 1006.01 253.586 1003.57 254.867C1001.14 256.149 998.34 256.789 995.184 256.789C991.965 256.789 989.121 256.258 986.652 255.196C984.184 254.133 982.09 252.586 980.371 250.555C978.652 248.524 977.277 246.086 976.246 243.242C975.246 240.399 974.559 237.196 974.184 233.633V228.383C974.559 224.633 975.262 221.274 976.293 218.305C977.324 215.336 978.684 212.805 980.371 210.711C982.09 208.586 984.168 206.977 986.605 205.883C989.043 204.758 991.855 204.196 995.043 204.196C998.23 204.196 1001.06 204.821 1003.53 206.071C1006 207.289 1008.07 209.039 1009.76 211.321C1011.45 213.602 1012.71 216.336 1013.56 219.524C1014.43 222.68 1014.87 226.196 1014.87 230.071ZM1006.15 231.055V230.071C1006.15 227.539 1005.89 225.164 1005.36 222.946C1004.82 220.696 1004 218.727 1002.87 217.039C1001.78 215.321 1000.37 213.977 998.652 213.008C996.934 212.008 994.887 211.508 992.512 211.508C990.324 211.508 988.418 211.883 986.793 212.633C985.199 213.383 983.84 214.399 982.715 215.68C981.59 216.93 980.668 218.367 979.949 219.992C979.262 221.586 978.746 223.242 978.402 224.961V237.102C979.027 239.289 979.902 241.352 981.027 243.289C982.152 245.196 983.652 246.742 985.527 247.93C987.402 249.086 989.762 249.664 992.605 249.664C994.949 249.664 996.965 249.18 998.652 248.211C1000.37 247.211 1001.78 245.852 1002.87 244.133C1004 242.414 1004.82 240.446 1005.36 238.227C1005.89 235.977 1006.15 233.586 1006.15 231.055Z" fill="black"/>
</svg>
